# xmcd
#
# Track frame offsets:
# 150
# 19218
# 32984
# 55168
# 76973
# 100315
# 114426
# 132151
# 151424
# 171205
#
# Disc length: 2624 seconds
#
# Revision: 0
# Processed by: cddbd v1.4PL0 Copyright (c) Steve Scherf et al.
# Submitted via: Audion 3.0.2 (http://www.panic.com/audion/)
#
DISCID=7b0a3e0a
DTITLE=The General Store - Local Honey
DYEAR=1900
DGENRE=
TTITLE0=Letdown
TTITLE1=Airport Breakfast
TTITLE2=Long Way
TTITLE3=Pretty Eyes
TTITLE4=Hold Me Now
TTITLE5=Somewhere Inbetween
TTITLE6=Think I'd Best Forget You (one last time)
TTITLE7=Coming Down
TTITLE8=Stay
TTITLE9=The Space Between Us
EXTD=
EXTT0=
EXTT1=
EXTT2=
EXTT3=
EXTT4=
EXTT5=
EXTT6=
EXTT7=
EXTT8=
EXTT9=
PLAYORDER=
